<?xml version="1.0" encoding="UTF-8"?>
<svg id="a" data-name="Capa 2" xmlns="http://www.w3.org/2000/svg" width="3287.62" height="661.22" viewBox="0 0 3287.62 661.22">
  <g id="b" data-name="Layer 1">
    <g>
      <circle cx="143.28" cy="392.83" r="42.29" fill="#fff"/>
      <circle cx="21.15" cy="148.57" r="21.15" fill="#fff"/>
      <circle cx="143.28" cy="514.97" r="31.72" fill="#fff"/>
      <circle cx="143.28" cy="636.44" r="23.23" fill="#fff"/>
      <circle cx="143.28" cy="270.7" r="52.87" fill="#fff"/>
      <circle cx="265.41" cy="392.83" r="33.04" transform="translate(-27.18 19.8) rotate(-4.07)" fill="#fff"/>
      <circle cx="265.41" cy="270.7" r="39.65" transform="translate(-30.12 508.15) rotate(-84.35)" fill="#fff"/>
      <circle cx="265.41" cy="636.44" r="24.78" transform="translate(-424.15 638.09) rotate(-67.5)" fill="#fff"/>
      <circle cx="265.41" cy="514.97" r="33.04" transform="translate(-79.06 49.16) rotate(-9.22)" fill="#fff"/>
      <circle cx="143.28" cy="148.57" r="52.87" fill="#fff"/>
      <circle cx="21.15" cy="636.44" r="13.53" transform="translate(-614.28 594.77) rotate(-84.35)" fill="#fff"/>
      <circle cx="143.28" cy="26.43" r="26.43" fill="#fff"/>
      <path d="M387.54,158.71c5.6,0,10.15-4.54,10.15-10.15s-4.55-10.15-10.15-10.15-10.15,4.55-10.15,10.15,4.54,10.15,10.15,10.15Z" fill="#fff" fill-rule="evenodd"/>
      <circle cx="265.41" cy="148.57" r="19.83" transform="translate(26.59 336.92) rotate(-67.5)" fill="#fff"/>
      <circle cx="387.54" cy="270.7" r="33.04" fill="#fff"/>
      <circle cx="21.15" cy="514.97" r="21.15" fill="#fff"/>
      <circle cx="21.15" cy="270.7" r="21.15" fill="#fff"/>
      <circle cx="21.15" cy="392.83" r="21.15" fill="#fff"/>
      <circle cx="387.54" cy="636.44" r="14.87" fill="#fff"/>
      <circle cx="21.15" cy="26.43" r="13.53" transform="translate(-11.37 35.85) rotate(-67.5)" fill="#fff"/>
      <circle cx="265.41" cy="26.43" r="13.53" transform="translate(139.42 261.53) rotate(-67.5)" fill="#fff"/>
      <circle cx="509.68" cy="270.7" r="31.72" transform="translate(-11.74 23.37) rotate(-2.6)" fill="#fff"/>
      <path d="M387.54,32.14c3.16,0,5.71-2.55,5.71-5.71s-2.55-5.71-5.71-5.71-5.71,2.55-5.71,5.71,2.55,5.71,5.71,5.71Z" fill="#fff" fill-rule="evenodd"/>
      <circle cx="631.81" cy="148.57" r="33.83" fill="#fff"/>
      <circle cx="387.54" cy="514.97" r="41.3" fill="#fff"/>
      <circle cx="631.81" cy="270.7" r="33.04" transform="translate(326.59 886.57) rotate(-86.83)" fill="#fff"/>
      <circle cx="509.68" cy="26.43" r="13.53" transform="translate(2.35 81.98) rotate(-9.22)" fill="#fff"/>
      <circle cx="509.68" cy="148.57" r="21.15" fill="#fff"/>
      <circle cx="631.81" cy="26.43" r="21.15" fill="#fff"/>
      <circle cx="509.68" cy="514.97" r="21.15" fill="#fff"/>
      <circle cx="509.68" cy="392.83" r="33.04" fill="#fff"/>
      <circle cx="631.81" cy="392.83" r="11.9" fill="#fff"/>
      <circle cx="387.54" cy="392.83" r="49.56" fill="#fff"/>
      <circle cx="509.68" cy="636.44" r="5.71" transform="translate(-173.89 1080.92) rotate(-84.35)" fill="#fff"/>
      <circle cx="631.81" cy="636.44" r="5.71" transform="translate(-43.53 46.39) rotate(-4.07)" fill="#fff"/>
      <path d="M631.81,509.25c-3.16,0-5.71,2.55-5.71,5.71s2.55,5.71,5.71,5.71,5.71-2.55,5.71-5.71-2.55-5.71-5.71-5.71Z" fill="#fff" fill-rule="evenodd"/>
      <path d="M1314.99,227.21c-15.48-11.46-34.58-17.24-57.5-17.24-14.5,0-27.53,2.54-39.09,7.54-11.65,5.09-22.04,12.34-31.05,21.75-9.01,9.4-17.53,20.77-25.57,33.99-6.07-13.62-13.42-25.08-22.23-34.28-8.82-9.21-18.81-16.36-29.78-21.45-11.07-5-23.61-7.54-37.62-7.54-9.21,0-18.32,1.47-27.13,4.21-8.82,2.84-17.14,6.66-24.98,11.46-7.84,4.9-14.5,10.29-20.08,16.26-5.68,6.07-9.89,12.05-12.64,18.02l2.35-25.86c0-8.42-1.96-14.3-5.68-17.73-3.82-3.33-10.19-5.09-19-5.09-7.64,0-13.32,1.08-17.15,3.04-3.82,1.96-6.37,4.8-7.54,8.42-1.17,3.62-1.76,8.22-1.76,13.81v238.31c0,5.68.59,10.48,1.76,14.49,1.18,4.02,3.62,7.15,7.25,9.6,3.62,2.25,9.21,3.53,16.85,3.53,8.03,0,13.91-1.18,17.73-3.24,3.82-2.25,6.37-5.29,7.54-9.3,1.17-4.01,1.86-8.81,1.86-14.49v-126.35c0-17.24,2.94-32.42,9.01-45.74,5.97-13.22,14.5-23.51,25.57-30.95,10.97-7.45,23.7-11.17,38.2-11.17,13.62,0,24.78,3.62,33.4,10.87,8.62,7.24,14.99,17.34,19.2,30.36,4.21,13.02,6.36,28.6,6.36,46.62v125.77c0,4.89.39,9.21,1.18,12.93.78,3.82,2.84,6.95,6.07,9.3,3.13,2.35,7.93,4.01,14.4,4.8,6.86,1.17,12.64.88,17.43-.88,4.8-1.86,8.42-4.9,10.87-9.3,2.35-4.41,3.62-9.6,3.62-15.67v-126.94c0-18.02,2.94-33.69,9.02-46.92,5.97-13.22,14.5-23.31,25.56-30.37,10.97-7.05,23.8-10.57,38.3-10.57,13.52,0,24.68,3.62,33.3,10.87,8.62,7.24,15.09,17.34,19.3,30.36,4.21,13.02,6.37,28.6,6.37,46.62v125.77c0,5.68.59,10.48,1.76,14.49,1.17,4.02,3.62,7.15,7.44,9.6,3.82,2.25,9.6,3.53,17.24,3.53,8.03,0,13.91-1.18,17.73-3.24,3.82-2.25,6.27-5.29,7.25-9.3.98-4.01,1.47-8.81,1.47-14.49v-125.77c0-28.89-3.92-53.68-11.75-74.34-7.84-20.57-19.4-36.63-34.87-48.09Z" fill="#fff" fill-rule="evenodd"/>
      <path d="M1606.5,219.96c-3.62-2.55-7.94-4.9-12.93-6.95-4.99-1.96-10.19-3.52-15.57-4.51-5.49-.98-11.17-1.47-17.24-1.47-12.05,0-22.14,1.47-30.37,4.21-8.23,2.84-15.28,6.37-21.06,10.58-5.88,4.21-10.68,8.91-14.5,14.1-3.82,5.29-7.15,10.48-9.9,15.57l2.45-18.02c0-4.41-.78-8.33-2.16-11.75-1.37-3.33-4.01-5.97-7.84-7.74-3.82-1.77-9.3-2.74-16.45-2.74-8.03,0-13.91.98-17.53,2.74-3.62,1.76-6.07,4.7-7.25,8.72-1.18,4.01-1.77,9.01-1.77,14.99v237.13c0,5.68.49,10.57,1.47,14.79.98,4.21,3.43,7.35,7.25,9.6,3.82,2.06,9.5,3.24,17.14,3.24,8.03,0,13.91-1.08,17.73-2.94,3.82-2.06,6.37-5,7.54-9.02,1.18-4.01,1.86-8.81,1.86-14.49v-161.22c0-9.6,1.86-18.03,5.68-25.27,3.82-7.25,8.72-13.13,14.8-17.73,5.97-4.6,12.24-8.13,18.9-10.57,6.66-2.35,12.93-3.62,19-3.62,8.82,0,15.18.78,19.2,2.16,4.02,1.37,7.15,2.94,9.3,4.51,2.16,1.56,4.51,3.13,6.95,4.51,2.35,1.37,6.17,2.06,11.46,2.06,5.97,0,11.75-3.04,17.44-9.3,5.58-6.17,8.42-13.72,8.42-22.63,0-3.92-1.18-7.44-3.33-10.48-2.16-2.94-5.09-5.78-8.72-8.42Z" fill="#fff" fill-rule="evenodd"/>
      <path d="M1851,219.96c-3.62-2.55-7.94-4.9-12.93-6.95-4.99-1.96-10.19-3.52-15.57-4.51-5.49-.98-11.17-1.47-17.24-1.47-12.05,0-22.14,1.47-30.37,4.21-8.23,2.84-15.28,6.37-21.06,10.58-5.88,4.21-10.68,8.91-14.5,14.1-3.82,5.29-7.15,10.48-9.9,15.57l2.45-18.02c0-4.41-.78-8.33-2.16-11.75-1.37-3.33-4.01-5.97-7.84-7.74-3.82-1.77-9.3-2.74-16.45-2.74-8.03,0-13.91.98-17.53,2.74-3.62,1.76-6.07,4.7-7.25,8.72-1.18,4.01-1.77,9.01-1.77,14.99v237.13c0,5.68.49,10.57,1.47,14.79.98,4.21,3.43,7.35,7.25,9.6,3.82,2.06,9.5,3.24,17.14,3.24,8.03,0,13.91-1.08,17.73-2.94,3.82-2.06,6.37-5,7.54-9.02,1.18-4.01,1.86-8.81,1.86-14.49v-161.22c0-9.6,1.86-18.03,5.68-25.27,3.82-7.25,8.72-13.13,14.8-17.73,5.97-4.6,12.24-8.13,18.9-10.57,6.66-2.35,12.93-3.62,19-3.62,8.82,0,15.18.78,19.2,2.16,4.02,1.37,7.15,2.94,9.3,4.51,2.16,1.56,4.51,3.13,6.95,4.51,2.35,1.37,6.17,2.06,11.46,2.06,5.98,0,11.75-3.04,17.44-9.3,5.58-6.17,8.42-13.72,8.42-22.63,0-3.92-1.18-7.44-3.33-10.48-2.16-2.94-5.09-5.78-8.72-8.42Z" fill="#fff" fill-rule="evenodd"/>
      <path d="M2026.63,451.99c-3.43-1.17-7.54-1.86-12.34-1.86-7.25,0-13.52-.79-18.71-2.35-5.19-1.56-9.5-4.41-12.93-8.42-3.43-4.01-5.98-8.91-7.55-14.79-1.56-5.78-2.35-12.73-2.35-20.76V102.32c0-5.59-.69-10.38-1.86-14.4-1.17-4.02-3.72-7.05-7.54-9.11-3.82-1.96-9.7-3.04-17.63-3.04-7.25,0-12.93,1.18-16.95,3.33-4.02,2.25-6.57,5.39-7.54,9.4-.98,4.01-1.47,9.01-1.47,14.99v300.9c0,14.49,1.08,27.13,3.33,37.91,2.16,10.87,5.78,20.08,10.87,27.72,5,7.64,11.27,13.81,18.91,18.61,7.64,4.89,16.55,8.32,26.74,10.57,10.19,2.06,21.75,3.24,34.67,3.24,4.8,0,8.92-.49,12.34-1.47,3.33-.98,6.07-3.43,8.13-7.15,1.96-3.82,3.04-9.79,3.04-17.82s-1.08-13.22-3.04-16.85c-2.06-3.53-4.8-5.97-8.13-7.15Z" fill="#fff" fill-rule="evenodd"/>
      <path d="M2338.82,211.24c-9.21-4.02-16.36-4.9-21.36-2.74-5.09,2.25-9.8,7.93-14.1,17.14l-72.83,163.43-.46.95-.03-.03-106.05-166.7c-5.68-8.03-11.17-12.73-16.55-14.1-5.49-1.37-12.54.68-21.35,6.27-8.03,5.29-12.73,10.58-13.91,15.97-1.17,5.48.78,12.14,6.07,20.08l126.56,195.1-9.83,22.24-51.2,114.9c-4.41,9.21-5.78,16.36-4.21,21.65,1.57,5.19,7.25,9.79,16.85,13.81,9.21,4.01,16.26,5.19,21.06,3.72,4.8-1.66,9.21-7.15,13.32-16.35l160.65-359.86c4.01-8.82,5.29-15.77,3.92-21.06-1.37-5.19-6.95-9.99-16.55-14.4Z" fill="#fff" fill-rule="evenodd"/>
      <path d="M2563.82,218.78c-4.02-.98-8.82-1.57-14.5-1.57l-57.11.8v-79.65c0-5.58-.69-10.29-1.86-14.1-1.18-3.72-3.82-6.76-7.84-9.01-4.02-2.16-9.8-3.33-17.44-3.33s-13.22,1.18-16.85,3.33c-3.62,2.25-6.07,5.39-7.25,9.3-1.18,4.02-1.76,8.82-1.76,14.4v79.17l-31.25-.32c-8.03,0-13.91,2.06-17.53,6.07-3.62,4.01-5.39,10.38-5.39,19.2,0,9.3,1.47,15.97,4.51,19.98,2.94,4.02,8.72,5.98,17.14,5.98l32.52-.37v136.32c0,18.12,1.76,33.3,5.39,45.45,3.62,12.24,9.7,22.13,18.12,29.78,8.42,7.64,19.1,13.32,32.13,16.85,13.03,3.52,28.99,5.39,47.9,5.39,5.19,0,9.89-.49,14.1-1.47,4.21-.98,7.44-3.43,9.6-7.15,2.16-3.82,3.33-9.6,3.33-17.24,0-7.15-1.08-12.54-3.04-16.16-1.96-3.62-4.99-6.07-9.01-7.24-4.02-1.18-9.21-1.86-15.58-1.86-9.3,0-17.14-.39-23.51-1.17-6.46-.79-11.56-2.74-15.38-5.98-3.82-3.23-6.66-7.93-8.42-14.2-1.76-6.17-2.64-14.5-2.64-24.98v-136.26l57.79.89c5.58,0,10.38-.59,14.4-1.76,4.02-1.18,7.05-3.72,9.01-7.54,1.96-3.82,3.04-9.6,3.04-17.24s-1.18-13.22-3.33-17.04c-2.25-3.82-5.39-6.27-9.3-7.25Z" fill="#fff" fill-rule="evenodd"/>
      <path d="M2678.14,214.57c-3.62-2.16-9.21-3.33-16.85-3.33-8.03,0-14.01,1.08-17.73,3.04-3.82,1.96-6.37,4.99-7.54,9.01-1.18,4.01-1.76,8.81-1.76,14.4v237.72c0,5.68.59,10.48,1.76,14.49,1.17,4.02,3.72,7.05,7.54,9.3,3.72,2.06,9.5,3.24,17.15,3.24s13.32-1.08,17.14-2.94c3.82-2.06,6.37-5,7.54-9.02,1.17-4.01,1.76-8.81,1.76-14.49v-237.13c0-5.97-.59-10.97-1.76-14.99-1.18-4.02-3.62-7.15-7.25-9.3Z" fill="#fff" fill-rule="evenodd"/>
      <path d="M2680.49,80.68c-4.41-2.35-10.77-3.62-19.2-3.62s-15.48,1.17-19.88,3.33c-4.41,2.16-7.45,5.58-9.02,10.19-1.56,4.7-2.35,10.19-2.35,16.55s.69,12.05,2.06,16.85c1.37,4.9,4.31,8.62,8.72,11.17,4.41,2.54,11.07,3.82,19.88,3.82s15.38-1.17,19.78-3.52c4.41-2.35,7.35-5.88,8.72-10.58,1.37-4.6,2.15-10.09,2.15-16.55s-.78-11.95-2.15-16.85c-1.37-4.8-4.31-8.42-8.72-10.77Z" fill="#fff" fill-rule="evenodd"/>
      <path d="M3009.33,432.11c-4.12-5.19-7.94-9.11-11.56-11.75-3.62-2.55-7.05-3.92-10.19-3.92-4.02,0-7.45,1.08-10.19,3.04-2.84,1.96-6.27,4.41-10.29,7.15-4.41,4.51-9.99,8.62-16.85,12.44-6.86,3.82-14.1,6.86-21.94,9.01-7.84,2.16-15.97,3.24-24.39,3.24-18.42,0-34.77-4.02-49.08-12.05-14.3-8.03-25.27-19-33.11-33.11-7.84-14.01-11.66-30.46-11.66-49.27s3.82-35.36,11.66-49.66c7.84-14.2,18.9-25.27,33.4-33.11,14.5-7.84,31.15-11.75,50.06-11.75,6.76,0,13.22.98,19.49,2.74,6.27,1.76,12.35,4.31,18.42,7.54,5.97,3.23,11.65,6.76,17.14,10.48,5.39,3.82,10.29,7.93,14.69,12.34,7.25,4.01,14.5,3.23,21.75-2.45,2.74-1.57,5.59-3.62,8.43-6.27,2.74-2.55,4.99-5.49,6.56-8.72,1.57-4.41,1.47-8.33-.29-11.75-1.86-3.33-4.8-7.64-8.72-12.93-4.51-7.25-11.85-14.1-22.04-20.77-10.19-6.66-21.94-12.05-35.17-16.26-13.23-4.21-26.64-6.37-40.26-6.37-20.57,0-39.97,3.43-58.19,10.29-18.22,6.86-34.19,16.65-47.8,29.48-13.72,12.93-24.39,28.21-32.23,46.04-7.84,17.82-11.66,38.2-11.66,61.12s3.82,43.29,11.66,61.12c7.84,17.83,18.61,33.21,32.52,46.04,13.81,12.83,29.88,22.63,48.1,29.48,18.22,6.76,37.81,10.19,58.77,10.19,11.95,0,24.2-1.86,36.64-5.39,12.44-3.62,24-8.32,34.67-14.2,10.58-5.78,19.1-11.85,25.57-18.32,4.41-3.62,7.64-7.25,9.6-10.87,1.96-3.53,2.74-7.35,2.16-11.37-.59-4.01-2.55-7.84-5.68-11.46Z" fill="#fff" fill-rule="evenodd"/>
      <path d="M3278.21,379.42c-6.27-10.19-14.3-18.42-24.1-24.68-9.8-6.17-20.86-11.17-33.11-14.99-12.24-3.82-24.2-7.15-35.75-9.99-8.03-1.96-15.77-4.12-23.21-6.27-7.44-2.16-13.81-4.7-19.2-7.54-5.48-2.74-9.89-6.17-13.22-10.19-3.43-4.02-5.09-9.21-5.09-15.67,0-7.25,2.06-13.72,6.27-19.59,4.21-5.78,10.19-10.19,18.03-13.22,7.84-2.94,16.75-4.51,26.84-4.51,8.03,0,15.77,1.27,23.41,3.62,7.64,2.35,14.99,5.39,22.23,9.01s14.11,7.84,20.57,12.64c4.31,3.62,8.72,4.7,13.13,3.33,4.41-1.37,8.42-4.7,12.15-9.99,4.7-5.97,6.95-11.75,6.56-17.43-.39-5.59-4.21-10.77-11.36-15.67-6.07-4.8-12.35-8.92-18.71-12.34-6.46-3.33-13.12-6.37-20.18-9.01-7.05-2.55-14.3-4.51-21.94-5.68-7.64-1.17-15.87-1.86-24.69-1.86-20.47,0-38.3,3.33-53.58,9.99-15.28,6.66-27.03,15.97-35.46,28.01-8.42,12.05-12.64,26.25-12.64,42.71,0,14.1,2.55,25.56,7.84,34.58,5.19,9.01,12.05,16.45,20.48,22.23,8.42,5.87,17.83,10.58,28.21,14.2,10.38,3.62,21.06,6.86,31.94,9.6,7.25,2.06,14.5,4.21,21.94,6.36,7.45,2.16,14.11,4.51,20.18,6.86,5.97,2.45,11.36,5.39,16.26,8.72,4.8,3.43,8.62,7.54,11.46,12.34,2.74,4.89,4.21,10.67,4.21,17.43,0,11.65-5.68,20.96-16.85,28.01-11.27,7.05-26.16,10.57-44.57,10.57-6.47,0-12.93-.88-19.59-2.74-6.66-1.77-13.13-4.02-19.59-6.66-6.47-2.55-12.64-5.59-18.61-9.01-6.07-3.33-11.27-6.47-15.67-9.3-6.07-5.19-11.07-7.94-15.08-8.13-4.02-.2-8.03,2.15-11.95,6.95-3.23,3.23-5.68,6.46-7.25,9.6-1.57,3.23-2.16,6.56-1.76,9.89.39,3.43,1.57,7.15,3.62,11.17,3.52,6.46,9.01,12.24,16.46,17.43,7.44,5.29,16.07,9.79,25.86,13.61,9.8,3.72,19.98,6.66,30.46,8.72,10.38,1.86,20.48,2.94,30.07,2.94,34.48,0,62.2-7.64,83.07-22.82,20.86-15.28,31.34-36.14,31.34-62.59,0-16.85-3.14-30.37-9.4-40.65Z" fill="#fff" fill-rule="evenodd"/>
    </g>
  </g>
</svg>